<?xml version="1.0" encoding="utf-8"?>
<!-- Generator: Adobe Illustrator 18.1.1, SVG Export Plug-In . SVG Version: 6.00 Build 0)  -->
<!DOCTYPE svg PUBLIC "-//W3C//DTD SVG 1.1//EN" "http://www.w3.org/Graphics/SVG/1.1/DTD/svg11.dtd">
<svg version="1.1" id="Layer_1" xmlns="http://www.w3.org/2000/svg" xmlns:xlink="http://www.w3.org/1999/xlink" x="0px" y="0px"
	 viewBox="0 0 1000 200" enable-background="new 0 0 1000 200" xml:space="preserve">
<g>
	<path fill="#0090C6" d="M231.3,108.8h23.5c-0.8,2.7-1.9,5.3-3.5,7.6c-1.6,2.3-3.5,4.4-5.6,6.1c-2.2,1.8-4.6,3.1-7.3,4.1
		c-2.7,1-5.6,1.5-8.7,1.5c-3.7,0-7.1-0.8-10.3-2.4c-3.2-1.6-6-3.7-8.4-6.5c-2.4-2.8-4.2-6-5.6-9.6c-1.4-3.7-2.1-7.5-2.1-11.6
		c0-4.1,0.7-8,2-11.6c1.3-3.7,3.1-6.9,5.4-9.6c2.3-2.7,5-4.9,8.1-6.6c3.1-1.6,6.5-2.4,10.1-2.4c2.5,0,4.9,0.4,7.1,1.1
		c2.2,0.8,4.3,1.7,6.2,3c1.9,1.2,3.5,2.7,4.9,4.4c1.4,1.7,2.5,3.5,3.4,5.4h17.7c-1.3-4.5-3.2-8.5-5.7-12.1c-2.5-3.6-5.4-6.6-8.7-9.1
		c-3.4-2.5-7.2-4.4-11.4-5.7c-4.2-1.3-8.7-2-13.6-2c-5.9,0-11.4,1.2-16.6,3.5c-5.1,2.3-9.6,5.5-13.4,9.6c-3.8,4.1-6.8,8.9-8.9,14.4
		c-2.2,5.5-3.2,11.4-3.2,17.7c0,6.3,1.1,12.2,3.2,17.7c2.2,5.5,5.1,10.3,8.9,14.3c3.8,4,8.2,7.2,13.4,9.6c5.1,2.3,10.6,3.5,16.6,3.5
		c5.4,0,10.3-0.9,14.7-2.8c4.4-1.9,8.1-4.6,11-8.1v9.4h15.2V93.5h-38.6V108.8z"/>
	<path fill="#0090C6" d="M334.6,86.3c-3-3.5-6.6-6.1-10.8-7.9c-4.2-1.8-8.7-2.7-13.4-2.7c-4.5,0-8.7,0.9-12.7,2.7
		c-4,1.8-7.5,4.2-10.5,7.2c-3,3-5.4,6.6-7.1,10.7c-1.7,4.1-2.6,8.5-2.6,13.2s0.9,9,2.6,13.1c1.7,4.1,4.1,7.6,7.1,10.7
		c3,3,6.5,5.4,10.5,7.2c4,1.8,8.2,2.6,12.7,2.6c8.1,0,14.8-2,20.2-6.1c5.4-4,9-9.3,10.9-15.9h-17.6c-1.4,2.6-3.4,4.5-5.8,5.7
		c-2.5,1.2-5.1,1.8-7.8,1.8c-3.9,0-7.3-1.1-10.2-3.4c-2.9-2.2-4.9-5.4-5.9-9.4h48.6c0.6-6.3,0.1-12-1.4-17
		C339.8,94,337.6,89.7,334.6,86.3z M294.4,102.5c1.2-3.7,3.2-6.7,6-8.9c2.8-2.2,6.1-3.3,9.9-3.3c4,0,7.4,1.1,10.3,3.3
		c2.9,2.2,4.8,5.2,5.8,8.9H294.4z"/>
	<path fill="#0090C6" d="M402.3,83.5c-2.2-2.5-4.8-4.4-7.9-5.7c-3.1-1.4-6.6-2.1-10.3-2.1c-3.5,0-6.6,0.7-9.4,2.1
		c-2.7,1.4-5.2,3.3-7.2,5.7v-6.2h-15.7v64.3h16.5v-37.6c0-3.7,1.1-6.7,3.4-9.1c2.3-2.4,5.3-3.6,9.1-3.6c2.7,0,4.9,0.5,6.5,1.4
		c1.6,1,2.8,2.1,3.6,3.5c0.8,1.4,1.3,2.8,1.6,4.2c0.2,1.5,0.4,2.6,0.4,3.6v37.6h16.5v-37.6c0-4.2-0.6-8.1-1.8-11.6
		C406.1,89,404.4,86,402.3,83.5z"/>
	<path fill="#0090C6" d="M472.8,85.4c-3-3-6.4-5.4-10.3-7.1c-3.9-1.7-8.1-2.6-12.6-2.6c-4.5,0-8.7,0.9-12.6,2.6
		c-3.9,1.7-7.3,4.1-10.2,7.1c-2.9,3-5.2,6.6-6.9,10.7c-1.7,4.1-2.6,8.6-2.6,13.4c0,4.8,0.9,9.3,2.6,13.4c1.7,4.1,4,7.6,6.9,10.6
		c2.9,3,6.3,5.4,10.2,7.1c3.9,1.7,8.1,2.6,12.6,2.6c4.5,0,8.7-0.9,12.6-2.6c3.9-1.7,7.3-4.1,10.3-7.1c3-3,5.3-6.5,7-10.6
		c1.7-4.1,2.6-8.5,2.6-13.4c0-4.8-0.9-9.3-2.6-13.4C478.1,92,475.7,88.5,472.8,85.4z M464.5,117.2c-0.8,2.2-2,4.2-3.4,5.8
		c-1.5,1.6-3.1,2.9-5.1,3.7c-1.9,0.9-4,1.3-6.1,1.3c-2.2,0-4.2-0.4-6.2-1.3c-2-0.9-3.6-2.1-5.1-3.7c-1.4-1.6-2.5-3.6-3.4-5.8
		c-0.8-2.2-1.2-4.7-1.2-7.5c0-2.7,0.4-5.3,1.2-7.6c0.8-2.3,2-4.3,3.4-6c1.4-1.7,3.1-3,5.1-3.9c2-0.9,4-1.4,6.2-1.4
		c2.2,0,4.2,0.5,6.1,1.4c1.9,0.9,3.6,2.2,5.1,3.9c1.5,1.7,2.6,3.7,3.4,6c0.8,2.3,1.2,4.9,1.2,7.6C465.7,112.5,465.3,115,464.5,117.2
		z"/>
	<path fill="#0090C6" d="M582.5,83.6c-2.3-2.5-5.2-4.4-8.6-5.8c-3.4-1.4-7.2-2.1-11.6-2.1c-4.2,0-7.9,0.8-11.2,2.4
		c-3.3,1.6-6.1,3.9-8.4,6.7c-2.2-2.9-5-5.2-8.3-6.7c-3.3-1.6-6.9-2.4-10.9-2.4c-3.5,0-6.6,0.7-9.4,2.1c-2.8,1.4-5.2,3.3-7.2,5.7
		v-6.2h-15.9v64.3h16.6v-37.6c0-3.7,1.1-6.7,3.4-9.1c2.3-2.4,5.3-3.6,8.9-3.6c2.8,0,4.9,0.5,6.5,1.4c1.6,1,2.8,2.1,3.6,3.5
		c0.8,1.4,1.3,2.8,1.6,4.2c0.2,1.5,0.4,2.6,0.4,3.6v37.6h16.6v-37.6c0-3.7,1.1-6.7,3.4-9.1c2.3-2.4,5.3-3.6,9.1-3.6
		c2.7,0,4.8,0.5,6.4,1.4c1.6,1,2.8,2.1,3.6,3.5c0.8,1.4,1.4,2.8,1.6,4.2c0.2,1.5,0.4,2.6,0.4,3.6v37.6h16.5v-37.6
		c0-4.2-0.6-8.1-1.8-11.6C586.6,89.1,584.8,86.1,582.5,83.6z"/>
	<path fill="#0090C6" d="M655.1,86.3c-3-3.5-6.6-6.1-10.8-7.9c-4.2-1.8-8.7-2.7-13.4-2.7c-4.5,0-8.7,0.9-12.7,2.7
		c-4,1.8-7.5,4.2-10.5,7.2c-3,3-5.4,6.6-7.1,10.7c-1.8,4.1-2.6,8.5-2.6,13.2s0.9,9,2.6,13.1c1.7,4.1,4.1,7.6,7.1,10.7
		c3,3,6.5,5.4,10.5,7.2c4,1.8,8.2,2.6,12.7,2.6c8.1,0,14.8-2,20.2-6.1c5.4-4,9-9.3,10.9-15.9h-17.6c-1.4,2.6-3.4,4.5-5.8,5.7
		c-2.5,1.2-5.1,1.8-7.8,1.8c-3.9,0-7.3-1.1-10.2-3.4c-2.9-2.2-4.8-5.4-5.9-9.4h48.6c0.6-6.3,0.1-12-1.4-17
		C660.3,94,658.1,89.7,655.1,86.3z M614.9,102.5c1.2-3.7,3.2-6.7,6-8.9c2.8-2.2,6.1-3.3,9.9-3.3c4,0,7.4,1.1,10.3,3.3
		c2.9,2.2,4.8,5.2,5.8,8.9H614.9z"/>
	<path fill="#596666" d="M751.1,115.8c2.1-5.5,3.2-11.4,3.2-17.9c0-6.2-1.1-12.1-3.2-17.6c-2.1-5.5-5.1-10.3-8.8-14.4
		c-3.7-4.1-8.2-7.3-13.4-9.6c-5.2-2.3-10.8-3.5-16.9-3.5c-6.2,0-11.8,1.2-17.1,3.5c-5.2,2.3-9.7,5.5-13.4,9.6
		c-3.7,4.1-6.7,8.9-8.8,14.4c-2.1,5.5-3.2,11.4-3.2,17.6c0,6.3,1.1,12.2,3.2,17.7c2.1,5.5,5.1,10.3,8.8,14.4
		c3.7,4.1,8.2,7.3,13.4,9.6c5.2,2.3,10.9,3.5,17.1,3.5c7,0,13.4-1.5,19.4-4.6l4.4,4.6h18.7l-12.2-13
		C746,126.1,749,121.3,751.1,115.8z M735.9,109c-1.2,3.4-3,6.5-5.1,9.1l-5.1-5.5H707l12.9,13.6c-2.6,0.9-5.2,1.4-7.7,1.4
		c-3.6,0-7-0.8-10.1-2.3c-3.2-1.5-5.9-3.7-8.2-6.4c-2.3-2.7-4.2-5.8-5.6-9.4c-1.4-3.6-2.1-7.4-2.1-11.5c0-4,0.7-7.8,2.1-11.4
		c1.4-3.6,3.2-6.7,5.6-9.4c2.3-2.7,5.1-4.8,8.2-6.4c3.2-1.5,6.5-2.3,10.1-2.3c3.5,0,6.8,0.8,9.9,2.3c3.1,1.5,5.9,3.7,8.2,6.4
		c2.3,2.7,4.2,5.9,5.6,9.4c1.4,3.6,2.1,7.4,2.1,11.4C737.8,101.9,737.2,105.5,735.9,109z"/>
	<path fill="#596666" d="M803.4,115c0,3.6-1.1,6.6-3.4,9c-2.3,2.4-5.3,3.6-9.1,3.6c-2.7,0-4.8-0.5-6.4-1.4c-1.6-1-2.8-2.1-3.6-3.5
		c-0.8-1.4-1.4-2.8-1.6-4.2c-0.3-1.4-0.4-2.6-0.4-3.5V77.4h-16.5V115c0,4.2,0.6,8.1,1.8,11.6c1.2,3.5,2.9,6.4,5.1,8.9
		c2.2,2.5,4.9,4.4,8,5.7c3.1,1.4,6.6,2.1,10.4,2.1c3.4,0,6.5-0.6,9.2-1.9c2.7-1.3,5.1-3.1,7.1-5.4v5.9h15.7V77.4h-16.5V115z"/>
	<path fill="#596666" d="M885.8,86.3c-3-3.5-6.6-6.1-10.8-7.9c-4.2-1.8-8.7-2.7-13.4-2.7c-4.5,0-8.7,0.9-12.7,2.7
		c-4,1.8-7.5,4.2-10.5,7.2c-3,3-5.4,6.6-7.1,10.7c-1.7,4.1-2.6,8.5-2.6,13.2s0.9,9,2.6,13.1c1.7,4.1,4.1,7.6,7.1,10.7
		c3,3,6.5,5.4,10.5,7.2c4,1.8,8.2,2.6,12.7,2.6c8.1,0,14.8-2,20.2-6.1c5.4-4,9-9.3,10.9-15.9h-17.6c-1.4,2.6-3.4,4.5-5.8,5.7
		c-2.5,1.2-5.1,1.8-7.8,1.8c-3.9,0-7.3-1.1-10.2-3.4c-2.9-2.2-4.9-5.4-5.9-9.4h48.6c0.6-6.3,0.1-12-1.4-17
		C891.1,94,888.8,89.7,885.8,86.3z M845.6,102.5c1.2-3.7,3.2-6.7,6-8.9c2.8-2.2,6.1-3.3,9.9-3.3c4,0,7.4,1.1,10.3,3.3
		c2.9,2.2,4.8,5.2,5.8,8.9H845.6z"/>
	<path fill="#596666" d="M949.5,107.2c-2.4-1.5-5.3-2.6-8.7-3.5c-3.4-0.9-7.1-1.6-11.1-2.3c-4-0.7-7.1-1.4-9.4-2.1
		c-2.2-0.8-3.4-2-3.4-3.6c0-1.2,0.8-2.3,2.5-3.4c1.7-1.1,4.4-1.7,8.2-1.7c3.1,0,5.5,0.5,7.3,1.6c1.8,1,2.9,2.3,3.4,3.8h17.1
		c-0.5-3-1.5-5.7-3.1-8.2c-1.6-2.5-3.6-4.6-6.1-6.4c-2.5-1.7-5.3-3.1-8.4-4.1c-3.2-1-6.6-1.4-10.2-1.4c-4.7,0-8.7,0.6-12.2,1.8
		c-3.5,1.2-6.3,2.8-8.6,4.7c-2.2,1.9-3.9,4.1-5.1,6.6c-1.1,2.5-1.7,5-1.7,7.5c0,3.6,0.9,6.5,2.6,8.8c1.7,2.3,3.9,4.1,6.6,5.6
		c2.7,1.4,5.6,2.5,8.7,3.2c3.1,0.7,6.1,1.3,9.1,1.7c2.8,0.4,5.1,0.9,6.9,1.3c1.8,0.5,3.1,0.9,4.1,1.4c1,0.5,1.7,1.1,2,1.7
		c0.3,0.7,0.5,1.5,0.5,2.4c0,1.9-1.1,3.4-3.3,4.3c-2.2,1-5,1.4-8.3,1.4c-1.2,0-2.6-0.1-3.9-0.4c-1.4-0.2-2.7-0.7-3.9-1.3
		c-1.2-0.6-2.4-1.4-3.4-2.3c-1-0.9-1.9-2.1-2.4-3.5h-16.7c0.5,3.5,1.6,6.6,3.3,9.4c1.7,2.7,3.9,5.1,6.6,7.1c2.7,2,5.8,3.5,9.2,4.5
		c3.5,1,7.3,1.6,11.4,1.6c4.1,0,7.9-0.5,11.3-1.6c3.5-1.1,6.4-2.6,8.9-4.5c2.5-1.9,4.5-4.2,5.9-6.9c1.4-2.7,2.1-5.6,2.1-8.7
		c0-3.5-0.7-6.4-2.1-8.7C953.8,110.5,951.9,108.6,949.5,107.2z"/>
	<path fill="#596666" d="M984.8,124.2c-2-1.8-3.1-5-3.1-9.5V92h11.6V77.4h-11.6V61h-16.5v53.6c0,4.4,0.6,8.4,1.9,11.9
		c1.2,3.5,3.1,6.5,5.5,8.9c2.4,2.4,5.4,4.2,9,5.2c3.6,1.1,7.7,1.4,12.5,0.9v-15C989.9,126.8,986.8,126,984.8,124.2z"/>
	<path fill="#0090C6" d="M124.6,141.5C124.6,141.5,124.6,141.4,124.6,141.5l-6.5-6.5c-21.1,20-54.5,19.7-75.2-1
		c-21.1-21.1-21.1-55.2,0-76.3c21.1-21.1,55.2-21.1,76.3,0c3.4,3.4,6.3,7.2,8.6,11.3h-23.7c-13.9-12-35-11.4-48.2,1.8
		c-13.9,13.9-13.9,36.3,0,50.2c13.9,13.9,36.3,13.9,50.2,0c3.2-3.2,5.7-6.9,7.4-10.8H84c-5.7,0-10.3-4.6-10.3-10.3
		c0-5.7,4.6-10.3,10.3-10.3h50.7c1.5,13-1.7,26.4-9.5,37.5l15.2,15.2c23.2-29.5,21.2-72.3-6-99.5c-29.4-29.4-77-29.4-106.4,0
		c-29.4,29.4-29.4,77,0,106.4c23.9,23.9,59.9,28.3,88.3,13.2l14.2,14.2c4,4,10.5,4,14.5,0c4-4,4-10.5,0-14.6L124.6,141.5z"/>
</g>
</svg>
